<svg xmlns="http://www.w3.org/2000/svg" width="80" height="24" viewBox="0 0 80 24"><g><g><g><path fill="#fff" d="M13.525 21.12L0 14.874v2.31l13.525 6.26 13.572-6.282v-2.31zm0-4.689L0 10.178v2.313l13.525 6.267 13.572-6.288v-2.314zM4.875 7.58l8.645-4.06 8.645 4.06-8.645 4.059zM0 7.55v.06l13.525 6.35 13.572-6.372v-.016L13.525 1.2z"/></g><g><path fill="#fff" d="M46.146 3.9h-8.051v4.05h7.944v2.742h-7.944V18.4H34.84V1.004h11.306zM59.092 5.79L53.529 20.74c-.414 1.117-.956 1.922-1.626 2.415-.67.493-1.47.74-2.397.74a3.755 3.755 0 0 1-.963-.13l-1.027-2.916c.243.116.492.206.75.272.256.065.498.097.727.097.485 0 .927-.112 1.326-.337.4-.225.706-.642.92-1.25l.428-1.263-4.771-12.576h3.36l2.845 8.094 2.674-8.094zm6.636 12.533a4.1 4.1 0 0 1-.826.282 4.144 4.144 0 0 1-.954.11 4.68 4.68 0 0 1-1.32-.186 2.878 2.878 0 0 1-1.105-.598 2.893 2.893 0 0 1-.75-1.077c-.187-.442-.28-.975-.28-1.6V.33h3.154v14.382c0 .522.104.881.311 1.077.208.196.455.294.74.294.358 0 .701-.11 1.03-.327zm13.76-3.601a6.396 6.396 0 0 1-1.414 2.088 6.717 6.717 0 0 1-2.11 1.393 6.56 6.56 0 0 1-2.58.511c-.913 0-1.77-.17-2.57-.511a6.655 6.655 0 0 1-2.098-1.403 6.57 6.57 0 0 1-1.927-4.7 6.4 6.4 0 0 1 .525-2.578 6.797 6.797 0 0 1 1.424-2.11c.6-.603 1.299-1.074 2.098-1.415.8-.341 1.65-.511 2.548-.511.914 0 1.774.17 2.58.51.807.342 1.51.806 2.11 1.393.6.588 1.07 1.288 1.413 2.1a6.65 6.65 0 0 1 .514 2.61c0 .944-.171 1.818-.514 2.623zM76.638 10.6a3.928 3.928 0 0 0-.76-1.219 3.49 3.49 0 0 0-1.124-.816 3.257 3.257 0 0 0-1.37-.293c-.486 0-.943.097-1.371.293a3.49 3.49 0 0 0-1.124.816 3.927 3.927 0 0 0-.76 1.219 4.006 4.006 0 0 0-.279 1.5c0 .538.093 1.038.279 1.502.185.464.439.87.76 1.219.321.348.696.62 1.124.816.428.195.885.293 1.37.293.486 0 .943-.098 1.371-.293a3.49 3.49 0 0 0 1.124-.816c.321-.348.575-.755.76-1.219.186-.464.279-.964.279-1.501 0-.537-.093-1.037-.279-1.501z"/></g></g></g></svg>